HIERARCHY
ROOT SpineBase
{
  OFFSET 0.000000 0.000000 0.000000
  CHANNELS 6 Xposition Yposition Zposition Zrotation Xrotation Yrotation
  JOINT SpineMid
  {
    OFFSET 0.000000 28.400387 0.000000
    CHANNELS 3 Zrotation Xrotation Yrotation
    JOINT SpineShoulder
    {
      OFFSET -0.123356 21.076525 -0.691937
      CHANNELS 3 Zrotation Xrotation Yrotation
      JOINT Neck
      {
        OFFSET -0.077845 6.963903 -0.545642
        CHANNELS 3 Zrotation Xrotation Yrotation
        JOINT Head
        {
          OFFSET 3.711026 12.876461 -0.999540
          CHANNELS 3 Zrotation Xrotation Yrotation
          End Site
          {
            OFFSET 0 0 0
          }
        }
      }
      JOINT ShoulderLeft
      {
        OFFSET -14.473950 -3.317705 -6.292013
        CHANNELS 3 Zrotation Xrotation Yrotation
        JOINT ElbowLeft
        {
          OFFSET -4.939307 -25.356040 0.374268
          CHANNELS 3 Zrotation Xrotation Yrotation
          JOINT WristLeft
          {
            OFFSET -0.373739 -21.496604 -5.264824
            CHANNELS 3 Zrotation Xrotation Yrotation
            JOINT HandLeft
            {
              OFFSET -0.148888 -5.312640 1.088274
              CHANNELS 3 Zrotation Xrotation Yrotation
              JOINT HandTipLeft
              {
                OFFSET -0.428431 -4.175595 0.187375
                CHANNELS 3 Zrotation Xrotation Yrotation
                End Site
                {
                  OFFSET 0 0 0
                }
              }
              JOINT ThumbLeft
              {
                OFFSET -2.953959 -0.384779 -1.078353
                CHANNELS 3 Zrotation Xrotation Yrotation
                End Site
                {
                  OFFSET 0 0 0
                }
              }
            }
          }
        }
      }
      JOINT ShoulderRight
      {
        OFFSET 16.317087 -5.431890 0.918680
        CHANNELS 3 Zrotation Xrotation Yrotation
        JOINT ElbowRight
        {
          OFFSET 1.939102 -26.688492 4.508803
          CHANNELS 3 Zrotation Xrotation Yrotation
          JOINT WristRight
          {
            OFFSET 2.235802 -21.475857 -4.638207
            CHANNELS 3 Zrotation Xrotation Yrotation
            JOINT HandRight
            {
              OFFSET -1.104881 -3.687427 -0.937175
              CHANNELS 3 Zrotation Xrotation Yrotation
              JOINT HandTipRight
              {
                OFFSET 0.821673 -5.159124 0.457564
                CHANNELS 3 Zrotation Xrotation Yrotation
                End Site
                {
                  OFFSET 0 0 0
                }
              }
              JOINT ThumbRight
              {
                OFFSET -2.468966 1.507843 -2.520444
                CHANNELS 3 Zrotation Xrotation Yrotation
                End Site
                {
                  OFFSET 0 0 0
                }
              }
            }
          }
        }
      }
    }
  }
  JOINT HipLeft
  {
    OFFSET -6.006461 0.960310 -4.759353
    CHANNELS 3 Zrotation Xrotation Yrotation
    JOINT KneeLeft
    {
      OFFSET -6.748670 -28.588219 5.129413
      CHANNELS 3 Zrotation Xrotation Yrotation
      JOINT AnkleLeft
      {
        OFFSET -4.134972 -30.506238 7.451699
        CHANNELS 3 Zrotation Xrotation Yrotation
        JOINT FootLeft
        {
          OFFSET 4.876621 -8.128942 -1.376367
          CHANNELS 3 Zrotation Xrotation Yrotation
          End Site
          {
            OFFSET 0 0 0
          }
        }
      }
    }
  }
  JOINT HipRight
  {
    OFFSET 5.624854 0.240356 -1.880028
    CHANNELS 3 Zrotation Xrotation Yrotation
    JOINT KneeRight
    {
      OFFSET -1.914791 -23.819925 4.997246
      CHANNELS 3 Zrotation Xrotation Yrotation
      JOINT AnkleRight
      {
        OFFSET -6.397554 -38.604893 12.513634
        CHANNELS 3 Zrotation Xrotation Yrotation
        JOINT FootRight
        {
          OFFSET -0.770325 -5.742453 -7.454197
          CHANNELS 3 Zrotation Xrotation Yrotation
          End Site
          {
            OFFSET 0 0 0
          }
        }
      }
    }
  }
}
MOTION
Frames: 11
Frame Time: 0.033333
4.184285 87.482698 375.804482 -48.962334 -37.544066 -58.011007 0.508785 0.793345 38.471355 2.003369 1.007403 -2.401173 -7.940054 18.961888 15.913647 0.000000 0.000000 0.000000 -24.701447 29.613315 28.648398 70.115436 -34.535966 1.700823 -6.092489 28.425590 4.492562 1.180315 4.980113 -1.793558 0.000000 0.000000 0.000000 0.000000 0.000000 0.000000 86.204972 42.625205 -35.742555 -24.367210 -1.295297 -8.363960 26.139547 -12.208499 -2.414018 -21.650123 28.670866 11.576684 0.000000 0.000000 0.000000 0.000000 0.000000 0.000000 73.682684 80.238008 -27.379228 -23.804723 -22.904804 -2.364356 -44.613088 -10.030785 -7.115929 0.000000 0.000000 0.000000 149.035168 73.047118 -96.688667 -43.877142 -18.161922 -17.661360 -71.386122 62.791172 71.231257 0.000000 0.000000 0.000000
5.083274 82.314845 379.233591 -48.817062 -37.664461 -55.423060 0.412659 0.546487 35.935868 1.324973 0.567190 -2.358978 -7.494031 19.388281 16.100663 0.000000 0.000000 0.000000 -45.214933 35.649375 44.951984 89.545086 -44.014943 19.789030 3.653674 29.073306 0.269046 -4.798117 6.114565 -2.461938 0.000000 0.000000 0.000000 0.000000 0.000000 0.000000 100.484816 53.206320 -49.157866 -20.220827 -14.790294 -10.683765 24.504874 -13.533847 -1.387148 -17.769688 29.397684 10.839835 0.000000 0.000000 0.000000 0.000000 0.000000 0.000000 97.747295 81.738289 -53.913999 -23.896121 -28.637864 -2.210160 -50.809658 -34.649484 -46.506457 0.000000 0.000000 0.000000 128.950456 72.902078 -76.088643 -41.607295 -14.723724 -15.662220 -39.161957 62.699717 39.205812 0.000000 0.000000 0.000000
5.186853 76.901111 383.035285 -48.916802 -37.782864 -53.015504 0.361438 0.361623 33.446318 1.353881 0.504603 -2.405795 -7.571680 19.478154 16.274383 0.000000 0.000000 0.000000 -73.548060 36.568865 68.356908 120.010253 -44.861711 47.693511 6.850449 25.319941 -0.484653 -10.761915 8.330022 -2.103002 0.000000 0.000000 0.000000 0.000000 0.000000 0.000000 127.359751 60.055475 -74.341544 -16.765469 -30.515823 -11.868722 18.292504 -14.030376 -0.806937 -8.472508 32.395590 9.197970 0.000000 0.000000 0.000000 0.000000 0.000000 0.000000 113.494464 81.134063 -71.238206 -23.457560 -32.312731 -1.923228 -56.335122 -44.111466 -67.077370 0.000000 0.000000 0.000000 116.154001 70.307182 -62.602792 -40.742785 -11.948642 -14.528740 -15.294337 38.176545 17.634193 0.000000 0.000000 0.000000
5.615790 71.286477 387.115155 -48.855680 -37.734512 -51.335248 0.331027 0.219226 31.820800 1.390866 0.456415 -2.439967 -7.740664 19.343167 16.370384 0.000000 0.000000 0.000000 -95.283123 30.599431 85.774255 141.652903 -35.595090 66.104827 5.660005 20.863373 1.166687 -16.062303 8.729157 -1.079246 0.000000 0.000000 0.000000 0.000000 0.000000 0.000000 165.579487 58.885258 -111.223328 -11.839464 -51.724521 -9.905357 10.110717 -11.548353 -1.484969 -0.158958 31.450399 8.203997 0.000000 0.000000 0.000000 0.000000 0.000000 0.000000 121.811794 80.440739 -80.492304 -23.150323 -34.841219 -1.697407 -58.198638 -47.709785 -75.333419 0.000000 0.000000 0.000000 107.657452 68.262015 -53.711001 -39.775353 -9.756916 -13.557063 -5.364598 16.375127 9.740931 0.000000 0.000000 0.000000
5.998340 66.536506 391.179291 -48.658547 -37.700190 -49.844598 0.274578 0.137476 30.454614 1.391709 0.448389 -2.439826 -7.929579 19.127349 16.411025 0.000000 0.000000 0.000000 -106.379101 27.035903 95.609564 150.177579 -27.213874 74.900232 0.783011 19.855455 3.473714 -19.146971 8.077608 -0.260536 0.000000 0.000000 0.000000 0.000000 0.000000 0.000000 -169.074253 49.204337 -135.655469 -2.402679 -71.929567 -1.428948 4.462757 -7.242101 -2.707458 6.481276 27.160086 8.710420 0.000000 0.000000 0.000000 0.000000 0.000000 0.000000 129.744418 79.766150 -89.410629 -22.856389 -37.585112 -1.432394 -58.323605 -48.353432 -76.758759 0.000000 0.000000 0.000000 102.202060 66.395717 -48.069989 -39.103295 -8.208053 -12.893604 -0.252975 2.275254 6.084844 0.000000 0.000000 0.000000
6.720120 61.422893 395.794356 -48.845267 -37.625681 -49.230454 0.268939 0.143602 29.800649 1.453597 0.462751 -2.461796 -7.969183 18.887813 16.405630 0.000000 0.000000 0.000000 -113.282672 23.886748 101.880079 153.984205 -19.871396 79.289679 -2.899708 20.696255 5.091868 -20.475222 4.199844 -0.440043 0.000000 0.000000 0.000000 0.000000 0.000000 0.000000 -153.823817 33.547958 -148.802290 151.660946 -85.691352 153.657546 4.233589 -1.547026 -4.757312 9.796402 20.772467 11.060859 0.000000 0.000000 0.000000 0.000000 0.000000 0.000000 132.664456 79.656336 -92.752863 -22.137821 -38.714728 -1.061791 -57.066256 -46.088610 -71.467415 0.000000 0.000000 0.000000 97.424191 65.345234 -43.265750 -37.867795 -6.775154 -12.094701 1.578488 -3.636498 4.967919 0.000000 0.000000 0.000000
7.435606 59.158731 397.772535 -48.564621 -37.272758 -45.984430 0.314684 0.184483 26.839671 1.465424 0.499389 -2.434491 -8.117029 18.350370 16.222203 0.000000 0.000000 0.000000 -112.147742 22.846993 99.059383 154.913312 -14.524539 74.016229 -11.551377 20.770606 8.604793 -18.322719 3.102981 -0.622509 0.000000 0.000000 0.000000 0.000000 0.000000 0.000000 -149.171201 27.775589 -153.932071 167.547096 -74.648724 169.174340 6.167068 6.268927 -7.865091 9.007249 17.205497 14.193205 0.000000 0.000000 0.000000 0.000000 0.000000 0.000000 128.013341 77.883433 -88.438589 -21.616635 -40.249176 -0.744199 -58.167675 -48.572432 -77.029799 0.000000 0.000000 0.000000 94.954148 60.654879 -39.718626 -38.568386 -4.956566 -11.826345 2.455706 -5.038406 4.177204 0.000000 0.000000 0.000000
8.419952 59.340249 398.103852 -48.446748 -37.186982 -45.283054 0.352148 0.346053 26.243190 1.424688 0.624688 -2.361633 -8.190261 18.027242 16.070454 0.000000 0.000000 0.000000 -107.413016 23.415328 93.233922 154.290276 -11.437947 65.527123 -28.263936 11.597307 13.605656 1.170236 8.952871 -0.303767 0.000000 0.000000 0.000000 0.000000 0.000000 0.000000 -149.186557 27.882649 -153.928771 -166.882063 -77.514847 -165.082561 17.863099 -4.229352 -5.253249 0.168377 24.166609 10.677922 0.000000 0.000000 0.000000 0.000000 0.000000 0.000000 133.920408 74.995093 -93.631451 -25.111323 -41.837729 -2.306439 -58.005882 -47.939932 -75.740091 0.000000 0.000000 0.000000 99.860598 60.093532 -44.007496 -40.593108 -6.398126 -12.874403 2.250920 -5.338523 4.505316 0.000000 0.000000 0.000000
6.640512 64.360522 394.295872 -47.367193 -38.306447 -43.959126 0.390557 0.563942 24.870538 1.317740 0.813256 -2.208152 -9.356357 18.532077 16.584424 0.000000 0.000000 0.000000 -103.520632 25.896569 89.736779 150.296232 -13.195677 60.645175 -38.550268 -0.526325 14.278126 16.164137 17.964745 -1.998637 0.000000 0.000000 0.000000 0.000000 0.000000 0.000000 -155.682303 32.541179 -146.965970 -142.559200 -79.461693 -138.431350 15.376273 2.353094 -7.816034 -0.432967 20.867530 12.650027 0.000000 0.000000 0.000000 0.000000 0.000000 0.000000 142.943102 73.845971 -105.162567 -25.038779 -45.240575 -2.189952 -57.806520 -44.105618 -68.446762 0.000000 0.000000 0.000000 106.279420 60.166613 -51.598354 -42.827130 -9.424259 -14.533605 1.789584 -4.371035 4.858868 0.000000 0.000000 0.000000
6.328183 69.523652 391.568988 -47.813506 -38.667281 -42.489423 0.731261 0.653138 22.888347 1.058368 0.971920 -2.070989 -9.112183 19.792954 16.733930 0.000000 0.000000 0.000000 -92.779008 28.528085 80.580156 145.540627 -17.168682 50.854079 -43.331609 -2.127008 14.975895 31.459560 16.811915 -5.567067 0.000000 0.000000 0.000000 0.000000 0.000000 0.000000 -165.832661 44.838909 -138.933656 -60.600045 -78.990584 -56.272051 15.389875 7.331515 -10.099135 -1.003208 16.496852 14.558394 0.000000 0.000000 0.000000 0.000000 0.000000 0.000000 147.067543 73.299120 -110.680484 -22.470976 -47.738364 -0.757120 -52.406762 -35.221000 -48.341254 0.000000 0.000000 0.000000 109.120988 57.770356 -53.862536 -44.313985 -9.931261 -15.229389 -4.045862 7.947519 9.575024 0.000000 0.000000 0.000000
6.000927 75.805818 388.383294 -48.416583 -39.433298 -39.403478 0.685925 0.741120 19.226084 1.132292 0.816271 -2.173962 -9.339172 20.493061 17.244805 0.000000 0.000000 0.000000 -74.743172 31.511668 66.381169 133.867594 -25.728443 37.169910 -41.947110 2.359239 15.933820 33.897144 18.528477 -7.035410 0.000000 0.000000 0.000000 0.000000 0.000000 0.000000 156.950862 63.186658 -106.773343 -20.410616 -53.786235 -16.165672 15.999760 8.807041 -10.726311 -6.108418 15.508027 14.508594 0.000000 0.000000 0.000000 0.000000 0.000000 0.000000 151.050776 69.630565 -115.934436 -21.361411 -52.236544 0.136920 -41.047551 -9.520865 -6.876569 0.000000 0.000000 0.000000 111.071477 53.384357 -55.129460 -45.962809 -10.241370 -15.938913 -3.068589 17.874903 6.944198 0.000000 0.000000 0.000000
